# xmcd
#
# Track frame offsets: 
#        150
#        45975
#        65387
#        84940
#        98070
#        111654
#        120852
#        138372
#        151712
#        164105
#        180000
#        190245
#        212705
#        248140
#
# Disc length: 3632 seconds
#
# Revision: 2
# Processed by: cddbd v1.5.2PL0 Copyright (c) Steve Scherf et al.
# Submitted via: ExactAudioCopy v1.0b4
#
DISCID=ad0e2e0e
DTITLE=Various Artist - The Best Of Dutch Blues - Disc 2
DYEAR=1900
DGENRE=Blues
TTITLE0=Livin' Blues - Livin' Blues - Hoochie Coochie Man - Mojo Worki
TTITLE0=ng' 
TTITLE1=Fool Side - Fool Side - Rob Hoeke
TTITLE2=Oscar Benton - Oscar Benton  -  I Feel So Good
TTITLE3=Bintangs - Bintangs  - Travelin' In The USA
TTITLE4=Cuby and The Blizzards - Cuby and The Blizzards - Downhearted Woma
TTITLE4=n
TTITLE5=Herman Brood - Herman Brood - Heartbreak Hotel
TTITLE6=Kaz Lux and John Schuursma - Kaz Lux and John Schuursma - Hey Joe
TTITLE7=Flavium - Flavium - Back Door Man
TTITLE8=BJ Hegen - BJ Hegen - One Way Call
TTITLE9=Shakey Sam - Shakey Sam - Big Car Blues
TTITLE10=John The Revelator - John The Revelator - Just A Little Bit
TTITLE11=Eelco Gelling and The Blues Connection - Eelco Gelling and The Bl
TTITLE11=ues Connection - Feel So Bad
TTITLE12=Sketch - Sketch - Have You Ever Loved A Woman
TTITLE13=Blue Horizon - Blue Horizon - Black Night Is Fallin'
EXTD=
EXTT0=
EXTT1=
EXTT2=
EXTT3=
EXTT4=
EXTT5=
EXTT6=
EXTT7=
EXTT8=
EXTT9=
EXTT10=
EXTT11=
EXTT12=
EXTT13=
PLAYORDER=
